<mxfile host="app.diagrams.net" modified="2021-03-02T00:35:27.880Z" agent="5.0 (Windows NT 10.0; Win64; x64) AppleWebKit/537.36 (KHTML, like Gecko) Chrome/88.0.4324.190 Safari/537.36" etag="JU2q49nPRJhGty6ULK4R" version="14.4.2" type="github">
  <diagram id="6FxCcH8vMh2BkkJb4iSt" name="Page-1">
    <mxGraphModel dx="1422" dy="762" grid="1" gridSize="10" guides="1" tooltips="1" connect="1" arrows="1" fold="1" page="1" pageScale="1" pageWidth="850" pageHeight="1100" math="0" shadow="0">
      <root>
        <mxCell id="0" />
        <mxCell id="1" parent="0" />
        <mxCell id="Q3vN6nO8sg0CoV9esibE-31" style="edgeStyle=orthogonalEdgeStyle;rounded=0;orthogonalLoop=1;jettySize=auto;html=1;exitX=0.5;exitY=1;exitDx=0;exitDy=0;entryX=0.5;entryY=0;entryDx=0;entryDy=0;endArrow=none;endFill=0;" edge="1" parent="1" source="Q3vN6nO8sg0CoV9esibE-1" target="Q3vN6nO8sg0CoV9esibE-8">
          <mxGeometry relative="1" as="geometry" />
        </mxCell>
        <mxCell id="Q3vN6nO8sg0CoV9esibE-1" value="People" style="whiteSpace=wrap;html=1;align=center;" vertex="1" parent="1">
          <mxGeometry x="410" y="210" width="100" height="40" as="geometry" />
        </mxCell>
        <mxCell id="Q3vN6nO8sg0CoV9esibE-32" style="edgeStyle=orthogonalEdgeStyle;rounded=0;orthogonalLoop=1;jettySize=auto;html=1;exitX=0.5;exitY=1;exitDx=0;exitDy=0;entryX=0;entryY=0.5;entryDx=0;entryDy=0;endArrow=none;endFill=0;" edge="1" parent="1" source="Q3vN6nO8sg0CoV9esibE-2" target="Q3vN6nO8sg0CoV9esibE-1">
          <mxGeometry relative="1" as="geometry" />
        </mxCell>
        <mxCell id="Q3vN6nO8sg0CoV9esibE-2" value="&lt;u&gt;ID&lt;/u&gt;" style="ellipse;whiteSpace=wrap;html=1;align=center;" vertex="1" parent="1">
          <mxGeometry x="130" y="80" width="100" height="40" as="geometry" />
        </mxCell>
        <mxCell id="Q3vN6nO8sg0CoV9esibE-33" style="edgeStyle=orthogonalEdgeStyle;rounded=0;orthogonalLoop=1;jettySize=auto;html=1;exitX=0.5;exitY=1;exitDx=0;exitDy=0;entryX=0;entryY=0;entryDx=0;entryDy=0;endArrow=none;endFill=0;" edge="1" parent="1" source="Q3vN6nO8sg0CoV9esibE-4" target="Q3vN6nO8sg0CoV9esibE-1">
          <mxGeometry relative="1" as="geometry" />
        </mxCell>
        <mxCell id="Q3vN6nO8sg0CoV9esibE-4" value="name" style="ellipse;whiteSpace=wrap;html=1;align=center;" vertex="1" parent="1">
          <mxGeometry x="260" y="80" width="100" height="40" as="geometry" />
        </mxCell>
        <mxCell id="Q3vN6nO8sg0CoV9esibE-37" style="edgeStyle=orthogonalEdgeStyle;rounded=0;orthogonalLoop=1;jettySize=auto;html=1;exitX=0.5;exitY=1;exitDx=0;exitDy=0;endArrow=none;endFill=0;" edge="1" parent="1" source="Q3vN6nO8sg0CoV9esibE-5" target="Q3vN6nO8sg0CoV9esibE-1">
          <mxGeometry relative="1" as="geometry" />
        </mxCell>
        <mxCell id="Q3vN6nO8sg0CoV9esibE-5" value="address" style="ellipse;whiteSpace=wrap;html=1;align=center;" vertex="1" parent="1">
          <mxGeometry x="390" y="80" width="100" height="40" as="geometry" />
        </mxCell>
        <mxCell id="Q3vN6nO8sg0CoV9esibE-35" style="edgeStyle=orthogonalEdgeStyle;rounded=0;orthogonalLoop=1;jettySize=auto;html=1;exitX=0.5;exitY=1;exitDx=0;exitDy=0;entryX=0.75;entryY=0;entryDx=0;entryDy=0;endArrow=none;endFill=0;" edge="1" parent="1" source="Q3vN6nO8sg0CoV9esibE-6" target="Q3vN6nO8sg0CoV9esibE-1">
          <mxGeometry relative="1" as="geometry" />
        </mxCell>
        <mxCell id="Q3vN6nO8sg0CoV9esibE-6" value="email" style="ellipse;whiteSpace=wrap;html=1;align=center;" vertex="1" parent="1">
          <mxGeometry x="520" y="80" width="100" height="40" as="geometry" />
        </mxCell>
        <mxCell id="Q3vN6nO8sg0CoV9esibE-36" style="edgeStyle=orthogonalEdgeStyle;rounded=0;orthogonalLoop=1;jettySize=auto;html=1;exitX=0.5;exitY=1;exitDx=0;exitDy=0;entryX=1;entryY=0.25;entryDx=0;entryDy=0;endArrow=none;endFill=0;" edge="1" parent="1" source="Q3vN6nO8sg0CoV9esibE-7" target="Q3vN6nO8sg0CoV9esibE-1">
          <mxGeometry relative="1" as="geometry" />
        </mxCell>
        <mxCell id="Q3vN6nO8sg0CoV9esibE-7" value="phone" style="ellipse;whiteSpace=wrap;html=1;align=center;" vertex="1" parent="1">
          <mxGeometry x="650" y="80" width="100" height="40" as="geometry" />
        </mxCell>
        <mxCell id="Q3vN6nO8sg0CoV9esibE-27" style="edgeStyle=orthogonalEdgeStyle;rounded=0;orthogonalLoop=1;jettySize=auto;html=1;exitX=0;exitY=0.5;exitDx=0;exitDy=0;entryX=0.5;entryY=0;entryDx=0;entryDy=0;endArrow=none;endFill=0;" edge="1" parent="1" source="Q3vN6nO8sg0CoV9esibE-8" target="Q3vN6nO8sg0CoV9esibE-9">
          <mxGeometry relative="1" as="geometry" />
        </mxCell>
        <mxCell id="Q3vN6nO8sg0CoV9esibE-28" style="edgeStyle=orthogonalEdgeStyle;rounded=0;orthogonalLoop=1;jettySize=auto;html=1;exitX=0.5;exitY=1;exitDx=0;exitDy=0;entryX=0.5;entryY=0;entryDx=0;entryDy=0;endArrow=none;endFill=0;" edge="1" parent="1" source="Q3vN6nO8sg0CoV9esibE-8" target="Q3vN6nO8sg0CoV9esibE-10">
          <mxGeometry relative="1" as="geometry" />
        </mxCell>
        <mxCell id="Q3vN6nO8sg0CoV9esibE-29" style="edgeStyle=orthogonalEdgeStyle;rounded=0;orthogonalLoop=1;jettySize=auto;html=1;exitX=0.5;exitY=1;exitDx=0;exitDy=0;entryX=0.5;entryY=0;entryDx=0;entryDy=0;endArrow=none;endFill=0;" edge="1" parent="1" source="Q3vN6nO8sg0CoV9esibE-8" target="Q3vN6nO8sg0CoV9esibE-11">
          <mxGeometry relative="1" as="geometry" />
        </mxCell>
        <mxCell id="Q3vN6nO8sg0CoV9esibE-30" style="edgeStyle=orthogonalEdgeStyle;rounded=0;orthogonalLoop=1;jettySize=auto;html=1;exitX=1;exitY=0.5;exitDx=0;exitDy=0;entryX=0.5;entryY=0;entryDx=0;entryDy=0;endArrow=none;endFill=0;" edge="1" parent="1" source="Q3vN6nO8sg0CoV9esibE-8" target="Q3vN6nO8sg0CoV9esibE-12">
          <mxGeometry relative="1" as="geometry" />
        </mxCell>
        <mxCell id="Q3vN6nO8sg0CoV9esibE-8" value="d" style="ellipse;whiteSpace=wrap;html=1;aspect=fixed;" vertex="1" parent="1">
          <mxGeometry x="445" y="330" width="30" height="30" as="geometry" />
        </mxCell>
        <mxCell id="Q3vN6nO8sg0CoV9esibE-9" value="Employee" style="whiteSpace=wrap;html=1;align=center;" vertex="1" parent="1">
          <mxGeometry x="190" y="440" width="100" height="40" as="geometry" />
        </mxCell>
        <mxCell id="Q3vN6nO8sg0CoV9esibE-26" style="edgeStyle=orthogonalEdgeStyle;rounded=0;orthogonalLoop=1;jettySize=auto;html=1;exitX=0.5;exitY=1;exitDx=0;exitDy=0;entryX=0.5;entryY=0;entryDx=0;entryDy=0;endArrow=none;endFill=0;" edge="1" parent="1" source="Q3vN6nO8sg0CoV9esibE-10" target="Q3vN6nO8sg0CoV9esibE-17">
          <mxGeometry relative="1" as="geometry" />
        </mxCell>
        <mxCell id="Q3vN6nO8sg0CoV9esibE-10" value="Student" style="whiteSpace=wrap;html=1;align=center;" vertex="1" parent="1">
          <mxGeometry x="340" y="440" width="100" height="40" as="geometry" />
        </mxCell>
        <mxCell id="Q3vN6nO8sg0CoV9esibE-15" style="edgeStyle=orthogonalEdgeStyle;rounded=0;orthogonalLoop=1;jettySize=auto;html=1;exitX=0.5;exitY=1;exitDx=0;exitDy=0;entryX=0.5;entryY=0;entryDx=0;entryDy=0;endArrow=none;endFill=0;" edge="1" parent="1" source="Q3vN6nO8sg0CoV9esibE-11" target="Q3vN6nO8sg0CoV9esibE-14">
          <mxGeometry relative="1" as="geometry" />
        </mxCell>
        <mxCell id="Q3vN6nO8sg0CoV9esibE-11" value="Faculty" style="whiteSpace=wrap;html=1;align=center;" vertex="1" parent="1">
          <mxGeometry x="490" y="440" width="100" height="40" as="geometry" />
        </mxCell>
        <mxCell id="Q3vN6nO8sg0CoV9esibE-16" style="edgeStyle=orthogonalEdgeStyle;rounded=0;orthogonalLoop=1;jettySize=auto;html=1;exitX=0.5;exitY=1;exitDx=0;exitDy=0;entryX=0.5;entryY=0;entryDx=0;entryDy=0;endArrow=none;endFill=0;" edge="1" parent="1" source="Q3vN6nO8sg0CoV9esibE-12" target="Q3vN6nO8sg0CoV9esibE-13">
          <mxGeometry relative="1" as="geometry" />
        </mxCell>
        <mxCell id="Q3vN6nO8sg0CoV9esibE-12" value="Staff" style="whiteSpace=wrap;html=1;align=center;" vertex="1" parent="1">
          <mxGeometry x="640" y="440" width="100" height="40" as="geometry" />
        </mxCell>
        <mxCell id="Q3vN6nO8sg0CoV9esibE-13" value="role" style="ellipse;whiteSpace=wrap;html=1;align=center;" vertex="1" parent="1">
          <mxGeometry x="640" y="510" width="100" height="40" as="geometry" />
        </mxCell>
        <mxCell id="Q3vN6nO8sg0CoV9esibE-14" value="specialization" style="ellipse;whiteSpace=wrap;html=1;align=center;" vertex="1" parent="1">
          <mxGeometry x="490" y="510" width="100" height="40" as="geometry" />
        </mxCell>
        <mxCell id="Q3vN6nO8sg0CoV9esibE-24" style="edgeStyle=orthogonalEdgeStyle;rounded=0;orthogonalLoop=1;jettySize=auto;html=1;exitX=0.5;exitY=1;exitDx=0;exitDy=0;entryX=0.5;entryY=0;entryDx=0;entryDy=0;endArrow=none;endFill=0;" edge="1" parent="1" source="Q3vN6nO8sg0CoV9esibE-17" target="Q3vN6nO8sg0CoV9esibE-18">
          <mxGeometry relative="1" as="geometry" />
        </mxCell>
        <mxCell id="Q3vN6nO8sg0CoV9esibE-25" style="edgeStyle=orthogonalEdgeStyle;rounded=0;orthogonalLoop=1;jettySize=auto;html=1;exitX=0.5;exitY=1;exitDx=0;exitDy=0;entryX=0.5;entryY=0;entryDx=0;entryDy=0;endArrow=none;endFill=0;" edge="1" parent="1" source="Q3vN6nO8sg0CoV9esibE-17" target="Q3vN6nO8sg0CoV9esibE-19">
          <mxGeometry relative="1" as="geometry" />
        </mxCell>
        <mxCell id="Q3vN6nO8sg0CoV9esibE-17" value="d" style="ellipse;whiteSpace=wrap;html=1;aspect=fixed;" vertex="1" parent="1">
          <mxGeometry x="375" y="560" width="30" height="30" as="geometry" />
        </mxCell>
        <mxCell id="Q3vN6nO8sg0CoV9esibE-23" style="edgeStyle=orthogonalEdgeStyle;rounded=0;orthogonalLoop=1;jettySize=auto;html=1;exitX=0.5;exitY=1;exitDx=0;exitDy=0;entryX=0.5;entryY=0;entryDx=0;entryDy=0;endArrow=none;endFill=0;" edge="1" parent="1" source="Q3vN6nO8sg0CoV9esibE-18" target="Q3vN6nO8sg0CoV9esibE-21">
          <mxGeometry relative="1" as="geometry" />
        </mxCell>
        <mxCell id="Q3vN6nO8sg0CoV9esibE-18" value="Undergrad" style="whiteSpace=wrap;html=1;align=center;" vertex="1" parent="1">
          <mxGeometry x="275" y="640" width="100" height="40" as="geometry" />
        </mxCell>
        <mxCell id="Q3vN6nO8sg0CoV9esibE-22" style="edgeStyle=orthogonalEdgeStyle;rounded=0;orthogonalLoop=1;jettySize=auto;html=1;exitX=0.5;exitY=1;exitDx=0;exitDy=0;entryX=0.5;entryY=0;entryDx=0;entryDy=0;endArrow=none;endFill=0;" edge="1" parent="1" source="Q3vN6nO8sg0CoV9esibE-19" target="Q3vN6nO8sg0CoV9esibE-20">
          <mxGeometry relative="1" as="geometry" />
        </mxCell>
        <mxCell id="Q3vN6nO8sg0CoV9esibE-19" value="Grad" style="whiteSpace=wrap;html=1;align=center;" vertex="1" parent="1">
          <mxGeometry x="405" y="640" width="100" height="40" as="geometry" />
        </mxCell>
        <mxCell id="Q3vN6nO8sg0CoV9esibE-20" value="time" style="ellipse;whiteSpace=wrap;html=1;align=center;" vertex="1" parent="1">
          <mxGeometry x="410" y="710" width="100" height="40" as="geometry" />
        </mxCell>
        <mxCell id="Q3vN6nO8sg0CoV9esibE-21" value="company" style="ellipse;whiteSpace=wrap;html=1;align=center;" vertex="1" parent="1">
          <mxGeometry x="275" y="710" width="100" height="40" as="geometry" />
        </mxCell>
      </root>
    </mxGraphModel>
  </diagram>
</mxfile>
